<mxfile host="app.diagrams.net" agent="Mozilla/5.0 (Windows NT 10.0; Win64; x64) AppleWebKit/537.36 (KHTML, like Gecko) Chrome/133.0.0.0 Safari/537.36" version="26.0.14">
  <diagram name="Page-1" id="IXrnQK5_JN5O4_K-YByB">
    <mxGraphModel dx="880" dy="468" grid="1" gridSize="10" guides="1" tooltips="1" connect="1" arrows="1" fold="1" page="1" pageScale="1" pageWidth="3300" pageHeight="4681" math="0" shadow="0">
      <root>
        <mxCell id="0" />
        <mxCell id="1" parent="0" />
        <mxCell id="ohZopj5vO3BjQmZIBhk5-1" value="&lt;font style=&quot;font-size: 15px;&quot;&gt;Client Server&lt;/font&gt;" style="rounded=0;whiteSpace=wrap;html=1;" vertex="1" parent="1">
          <mxGeometry x="133" y="262" width="100" height="60" as="geometry" />
        </mxCell>
        <mxCell id="ohZopj5vO3BjQmZIBhk5-2" value="&lt;font style=&quot;font-size: 15px;&quot;&gt;ASGI Server&lt;/font&gt;&lt;div&gt;&lt;font style=&quot;font-size: 15px;&quot;&gt;(&lt;b&gt;uvicorn&lt;/b&gt;)&lt;/font&gt;&lt;/div&gt;" style="ellipse;shape=cloud;whiteSpace=wrap;html=1;" vertex="1" parent="1">
          <mxGeometry x="268" y="249" width="120" height="80" as="geometry" />
        </mxCell>
        <mxCell id="ohZopj5vO3BjQmZIBhk5-5" value="" style="rounded=1;whiteSpace=wrap;html=1;" vertex="1" parent="1">
          <mxGeometry x="450" y="80" width="830" height="460" as="geometry" />
        </mxCell>
        <mxCell id="ohZopj5vO3BjQmZIBhk5-7" value="" style="rounded=1;whiteSpace=wrap;html=1;" vertex="1" parent="1">
          <mxGeometry x="510" y="113" width="200" height="350" as="geometry" />
        </mxCell>
        <mxCell id="ohZopj5vO3BjQmZIBhk5-11" value="&lt;font style=&quot;font-size: 15px;&quot;&gt;&lt;b&gt;Opinion View&lt;/b&gt;&lt;/font&gt;" style="rounded=1;whiteSpace=wrap;html=1;" vertex="1" parent="1">
          <mxGeometry x="523" y="170" width="170" height="20" as="geometry" />
        </mxCell>
        <mxCell id="ohZopj5vO3BjQmZIBhk5-12" value="&lt;font style=&quot;font-size: 16px;&quot;&gt;Routers&lt;/font&gt;" style="rounded=0;whiteSpace=wrap;html=1;rotation=-90;" vertex="1" parent="1">
          <mxGeometry x="396" y="274" width="80" height="28" as="geometry" />
        </mxCell>
        <mxCell id="ohZopj5vO3BjQmZIBhk5-13" value="&lt;font style=&quot;font-size: 15px;&quot;&gt;&lt;b&gt;Recommandation View&lt;/b&gt;&lt;/font&gt;" style="rounded=1;whiteSpace=wrap;html=1;" vertex="1" parent="1">
          <mxGeometry x="523" y="218" width="170" height="20" as="geometry" />
        </mxCell>
        <mxCell id="ohZopj5vO3BjQmZIBhk5-14" value="&lt;font style=&quot;font-size: 15px;&quot;&gt;&lt;b&gt;Prediction View&lt;/b&gt;&lt;/font&gt;" style="rounded=1;whiteSpace=wrap;html=1;" vertex="1" parent="1">
          <mxGeometry x="523" y="325" width="170" height="20" as="geometry" />
        </mxCell>
        <mxCell id="ohZopj5vO3BjQmZIBhk5-15" value="&lt;font style=&quot;font-size: 15px;&quot;&gt;&lt;b&gt;Prevision View&lt;/b&gt;&lt;/font&gt;" style="rounded=1;whiteSpace=wrap;html=1;" vertex="1" parent="1">
          <mxGeometry x="523" y="270" width="170" height="20" as="geometry" />
        </mxCell>
        <mxCell id="ohZopj5vO3BjQmZIBhk5-16" value="&lt;font style=&quot;font-size: 15px;&quot;&gt;&lt;b&gt;Water Recommandation View&lt;/b&gt;&lt;/font&gt;" style="rounded=1;whiteSpace=wrap;html=1;" vertex="1" parent="1">
          <mxGeometry x="523" y="380" width="170" height="40" as="geometry" />
        </mxCell>
        <mxCell id="ohZopj5vO3BjQmZIBhk5-17" value="" style="rounded=1;whiteSpace=wrap;html=1;" vertex="1" parent="1">
          <mxGeometry x="768" y="115" width="200" height="350" as="geometry" />
        </mxCell>
        <mxCell id="ohZopj5vO3BjQmZIBhk5-18" value="&lt;font style=&quot;font-size: 15px;&quot;&gt;&lt;b&gt;Opinion View&lt;/b&gt;&lt;/font&gt;" style="rounded=1;whiteSpace=wrap;html=1;" vertex="1" parent="1">
          <mxGeometry x="782" y="172" width="170" height="20" as="geometry" />
        </mxCell>
        <mxCell id="ohZopj5vO3BjQmZIBhk5-19" value="&lt;font style=&quot;font-size: 15px;&quot;&gt;&lt;b&gt;Recommandation View&lt;/b&gt;&lt;/font&gt;" style="rounded=1;whiteSpace=wrap;html=1;" vertex="1" parent="1">
          <mxGeometry x="782" y="220" width="170" height="20" as="geometry" />
        </mxCell>
        <mxCell id="ohZopj5vO3BjQmZIBhk5-20" value="&lt;font style=&quot;font-size: 15px;&quot;&gt;&lt;b&gt;Prediction View&lt;/b&gt;&lt;/font&gt;" style="rounded=1;whiteSpace=wrap;html=1;" vertex="1" parent="1">
          <mxGeometry x="782" y="327" width="170" height="20" as="geometry" />
        </mxCell>
        <mxCell id="ohZopj5vO3BjQmZIBhk5-21" value="&lt;font style=&quot;font-size: 15px;&quot;&gt;&lt;b&gt;Prevision View&lt;/b&gt;&lt;/font&gt;" style="rounded=1;whiteSpace=wrap;html=1;" vertex="1" parent="1">
          <mxGeometry x="782" y="272" width="170" height="20" as="geometry" />
        </mxCell>
        <mxCell id="ohZopj5vO3BjQmZIBhk5-22" value="&lt;font style=&quot;font-size: 15px;&quot;&gt;&lt;b&gt;Water Recommandation View&lt;/b&gt;&lt;/font&gt;" style="rounded=1;whiteSpace=wrap;html=1;" vertex="1" parent="1">
          <mxGeometry x="782" y="382" width="170" height="40" as="geometry" />
        </mxCell>
        <mxCell id="ohZopj5vO3BjQmZIBhk5-23" value="" style="shape=flexArrow;endArrow=classic;startArrow=classic;html=1;rounded=0;entryX=0;entryY=0.5;entryDx=0;entryDy=0;" edge="1" parent="1" source="ohZopj5vO3BjQmZIBhk5-12" target="ohZopj5vO3BjQmZIBhk5-7">
          <mxGeometry width="100" height="100" relative="1" as="geometry">
            <mxPoint x="660" y="370" as="sourcePoint" />
            <mxPoint x="760" y="270" as="targetPoint" />
          </mxGeometry>
        </mxCell>
        <mxCell id="ohZopj5vO3BjQmZIBhk5-24" value="" style="shape=flexArrow;endArrow=classic;startArrow=classic;html=1;rounded=0;exitX=1;exitY=0.5;exitDx=0;exitDy=0;entryX=0;entryY=0.5;entryDx=0;entryDy=0;" edge="1" parent="1" source="ohZopj5vO3BjQmZIBhk5-7" target="ohZopj5vO3BjQmZIBhk5-17">
          <mxGeometry width="100" height="100" relative="1" as="geometry">
            <mxPoint x="660" y="370" as="sourcePoint" />
            <mxPoint x="760" y="270" as="targetPoint" />
          </mxGeometry>
        </mxCell>
        <mxCell id="ohZopj5vO3BjQmZIBhk5-25" value="" style="endArrow=classic;startArrow=classic;html=1;rounded=0;exitX=0.875;exitY=0.5;exitDx=0;exitDy=0;exitPerimeter=0;entryX=0.5;entryY=0;entryDx=0;entryDy=0;" edge="1" parent="1" source="ohZopj5vO3BjQmZIBhk5-2" target="ohZopj5vO3BjQmZIBhk5-12">
          <mxGeometry width="50" height="50" relative="1" as="geometry">
            <mxPoint x="373" y="282" as="sourcePoint" />
            <mxPoint x="423.00800000000004" y="282" as="targetPoint" />
          </mxGeometry>
        </mxCell>
        <mxCell id="ohZopj5vO3BjQmZIBhk5-26" value="" style="endArrow=classic;startArrow=classic;html=1;rounded=0;exitX=1;exitY=0.5;exitDx=0;exitDy=0;entryX=0.16;entryY=0.55;entryDx=0;entryDy=0;entryPerimeter=0;" edge="1" parent="1" source="ohZopj5vO3BjQmZIBhk5-1" target="ohZopj5vO3BjQmZIBhk5-2">
          <mxGeometry width="50" height="50" relative="1" as="geometry">
            <mxPoint x="540" y="350" as="sourcePoint" />
            <mxPoint x="590" y="300" as="targetPoint" />
          </mxGeometry>
        </mxCell>
        <mxCell id="ohZopj5vO3BjQmZIBhk5-27" value="&lt;b&gt;&lt;font style=&quot;font-size: 15px;&quot;&gt;CSV and Model Files Storage&lt;/font&gt;&lt;/b&gt;" style="shape=cylinder3;whiteSpace=wrap;html=1;boundedLbl=1;backgroundOutline=1;size=15;" vertex="1" parent="1">
          <mxGeometry x="1053" y="305" width="160" height="140" as="geometry" />
        </mxCell>
        <mxCell id="ohZopj5vO3BjQmZIBhk5-28" value="&lt;b&gt;&lt;font style=&quot;font-size: 16px;&quot;&gt;Views&lt;/font&gt;&lt;/b&gt;" style="text;html=1;align=center;verticalAlign=middle;whiteSpace=wrap;rounded=0;" vertex="1" parent="1">
          <mxGeometry x="560" y="480" width="60" height="30" as="geometry" />
        </mxCell>
        <mxCell id="ohZopj5vO3BjQmZIBhk5-29" value="&lt;span style=&quot;font-size: 16px;&quot;&gt;&lt;b&gt;Services&lt;/b&gt;&lt;/span&gt;" style="text;html=1;align=center;verticalAlign=middle;whiteSpace=wrap;rounded=0;" vertex="1" parent="1">
          <mxGeometry x="830" y="480" width="60" height="30" as="geometry" />
        </mxCell>
        <mxCell id="ohZopj5vO3BjQmZIBhk5-30" value="&lt;span style=&quot;font-size: 16px;&quot;&gt;&lt;b&gt;ML-DL Models&lt;/b&gt;&lt;/span&gt;" style="text;html=1;align=center;verticalAlign=middle;whiteSpace=wrap;rounded=0;" vertex="1" parent="1">
          <mxGeometry x="1070" y="480" width="140" height="30" as="geometry" />
        </mxCell>
        <mxCell id="ohZopj5vO3BjQmZIBhk5-31" value="" style="shape=flexArrow;endArrow=classic;startArrow=classic;html=1;rounded=0;exitX=0;exitY=0.5;exitDx=0;exitDy=0;exitPerimeter=0;entryX=1;entryY=0.75;entryDx=0;entryDy=0;" edge="1" parent="1" source="ohZopj5vO3BjQmZIBhk5-27" target="ohZopj5vO3BjQmZIBhk5-17">
          <mxGeometry width="100" height="100" relative="1" as="geometry">
            <mxPoint x="900" y="310" as="sourcePoint" />
            <mxPoint x="1000" y="210" as="targetPoint" />
          </mxGeometry>
        </mxCell>
        <mxCell id="ohZopj5vO3BjQmZIBhk5-32" value="" style="ellipse;whiteSpace=wrap;html=1;aspect=fixed;" vertex="1" parent="1">
          <mxGeometry x="1053" y="103" width="137" height="137" as="geometry" />
        </mxCell>
      </root>
    </mxGraphModel>
  </diagram>
</mxfile>
